<svg xmlns="http://www.w3.org/2000/svg" viewBox="0 0 100 100" width="32" height="32"><path d="M50,5c-24.8,0-45,20.2-45,45s20.2,45,45,45s45-20.2,45-45S74.8,5,50,5z M71.2,34.8c-0.8,0-1.5-0.3-2.1-0.9l-19.1-19.1c-1.2-1.2-3.1-1.2-4.2,0L26.7,33.9c-1.2,1.2-3.1,1.2-4.2,0s-1.2-3.1,0-4.2L41.6,10.6c3.5-3.5,9.2-3.5,12.7,0l19.1,19.1c1.2,1.2,1.2,3.1,0,4.2C72.7,34.5,72,34.8,71.2,34.8z M50,90c-22,0-40-18-40-40c0-4.4,3.6-8,8-8s8,3.6,8,8c0,13.3,10.7,24,24,24s24-10.7,24-24c0-4.4,3.6-8,8-8s8,3.6,8,8C90,72,72,90,50,90z" fill="#1a3a3a"/></svg>